HIERARCHY
ROOT Hips
{
    OFFSET 0.00 0.00 0.00
    CHANNELS 6 Xposition Yposition Zposition Zrotation Xrotation Yrotation
    JOINT Spine
    {
        OFFSET 0.00 5.21 0.00
        CHANNELS 3 Zrotation Xrotation Yrotation
        JOINT Spine1
        {
            OFFSET 0.00 5.41 0.00
            CHANNELS 3 Zrotation Xrotation Yrotation
            JOINT Neck
            {
                OFFSET 0.00 11.10 0.00
                CHANNELS 3 Zrotation Xrotation Yrotation
                JOINT Head
                {
                    OFFSET 0.00 4.97 0.00
                    CHANNELS 3 Zrotation Xrotation Yrotation
                    End Site
                    {
                        OFFSET 0.00 8.91 0.00
                    }
                }
            }
            JOINT LeftArm
            {
                OFFSET 5.49 0.00 0.00
                CHANNELS 3 Zrotation Xrotation Yrotation
                JOINT LeftForeArm
                {
                    OFFSET 9.46 0.00 0.00
                    CHANNELS 3 Zrotation Xrotation Yrotation
                    JOINT LeftHand
                    {
                        OFFSET 9.21 0.00 0.00
                        CHANNELS 3 Zrotation Xrotation Yrotation
                        End Site
                        {
                            OFFSET 4.00 0.00 0.00
                        }
                    }
                }
            }
            JOINT RightArm
            {
                OFFSET -5.49 0.00 0.00
                CHANNELS 3 Zrotation Xrotation Yrotation
                JOINT RightForeArm
                {
                    OFFSET -9.46 0.00 0.00
                    CHANNELS 3 Zrotation Xrotation Yrotation
                    JOINT RightHand
                    {
                        OFFSET -9.21 0.00 0.00
                        CHANNELS 3 Zrotation Xrotation Yrotation
                        End Site
                        {
                            OFFSET -4.00 0.00 0.00
                        }
                    }
                }
            }
        }
    }
    JOINT LeftUpLeg
    {
        OFFSET 3.91 0.00 0.00
        CHANNELS 3 Zrotation Xrotation Yrotation
        JOINT LeftLeg
        {
            OFFSET 0.00 -18.34 0.00
            CHANNELS 3 Zrotation Xrotation Yrotation
            JOINT LeftFoot
            {
                OFFSET 0.00 -17.37 0.00
                CHANNELS 3 Zrotation Xrotation Yrotation
                End Site
                {
                    OFFSET 0.00 -3.46 0.00
                }
            }
        }
    }
    JOINT RightUpLeg
    {
        OFFSET -3.91 0.00 0.00
        CHANNELS 3 Zrotation Xrotation Yrotation
        JOINT RightLeg
        {
            OFFSET 0.00 -18.34 0.00
            CHANNELS 3 Zrotation Xrotation Yrotation
            JOINT RightFoot
            {
                OFFSET 0.00 -17.37 0.00
                CHANNELS 3 Zrotation Xrotation Yrotation
                End Site
                {
                    OFFSET 0.00 -3.46 0.00
                }
            }
        }
    }
}
MOTION
Frames: 31
Frame Time: 0.033333
0.0000 0.0000 0.0000 0.0000 0.0000 0.0000 0.0000 5.0000 0.0000 0.0000 0.0000 0.0000 0.0000 0.0000 0.0000 10.0000 0.0000 0.0000 -35.0000 20.0000 0.0000 0.0000 -15.0000 0.0000 0.0000 0.0000 0.0000 0.0000 7.5000 0.0000 0.0000 2.5000 0.0000 0.0000 0.0000 0.0000 0.0000 0.0000 0.0000 0.0000 0.0000 0.0000 0.0000 0.0000 0.0000 0.0000 0.0000 0.0000 0.0000 0.0000 0.0000 0.0000 0.0000 0.0000
0.0000 0.0000 0.0000 0.0000 0.0000 0.0000 0.0000 5.7822 0.0000 0.0000 0.0000 0.0000 0.0000 0.0000 0.0000 11.5643 0.0000 0.0000 -40.4752 23.1287 0.0000 0.0000 -17.3465 0.0000 0.0000 0.0000 0.0000 0.0000 8.6733 0.0000 0.0000 2.8911 0.0000 0.0000 0.0000 0.0000 0.0000 0.0000 0.0000 0.0000 0.0000 0.0000 0.0000 0.0000 0.0000 0.0000 0.0000 0.0000 0.0000 0.0000 0.0000 0.0000 0.0000 0.0000
0.0000 0.0000 0.0000 0.0000 0.0000 0.0000 0.0000 6.5451 0.0000 0.0000 0.0000 0.0000 0.0000 0.0000 0.0000 13.0902 0.0000 0.0000 -45.8156 26.1803 0.0000 0.0000 -19.6353 0.0000 0.0000 0.0000 0.0000 0.0000 9.8176 0.0000 0.0000 3.2725 0.0000 0.0000 0.0000 0.0000 0.0000 0.0000 0.0000 0.0000 0.0000 0.0000 0.0000 0.0000 0.0000 0.0000 0.0000 0.0000 0.0000 0.0000 0.0000 0.0000 0.0000 0.0000
0.0000 0.0000 0.0000 0.0000 0.0000 0.0000 0.0000 7.2700 0.0000 0.0000 0.0000 0.0000 0.0000 0.0000 0.0000 14.5399 0.0000 0.0000 -50.8897 29.0798 0.0000 0.0000 -21.8099 0.0000 0.0000 0.0000 0.0000 0.0000 10.9049 0.0000 0.0000 3.6350 0.0000 0.0000 0.0000 0.0000 0.0000 0.0000 0.0000 0.0000 0.0000 0.0000 0.0000 0.0000 0.0000 0.0000 0.0000 0.0000 0.0000 0.0000 0.0000 0.0000 0.0000 0.0000
0.0000 0.0000 0.0000 0.0000 0.0000 0.0000 0.0000 7.9389 0.0000 0.0000 0.0000 0.0000 0.0000 0.0000 0.0000 15.8779 0.0000 0.0000 -55.5725 31.7557 0.0000 0.0000 -23.8168 0.0000 0.0000 0.0000 0.0000 0.0000 11.9084 0.0000 0.0000 3.9695 0.0000 0.0000 0.0000 0.0000 0.0000 0.0000 0.0000 0.0000 0.0000 0.0000 0.0000 0.0000 0.0000 0.0000 0.0000 0.0000 0.0000 0.0000 0.0000 0.0000 0.0000 0.0000
0.0000 0.0000 0.0000 0.0000 0.0000 0.0000 0.0000 8.5355 0.0000 0.0000 0.0000 0.0000 0.0000 0.0000 0.0000 17.0711 0.0000 0.0000 -59.7487 34.1421 0.0000 0.0000 -25.6066 0.0000 0.0000 0.0000 0.0000 0.0000 12.8033 0.0000 0.0000 4.2678 0.0000 0.0000 0.0000 0.0000 0.0000 0.0000 0.0000 0.0000 0.0000 0.0000 0.0000 0.0000 0.0000 0.0000 0.0000 0.0000 0.0000 0.0000 0.0000 0.0000 0.0000 0.0000
0.0000 0.0000 0.0000 0.0000 0.0000 0.0000 0.0000 9.0451 0.0000 0.0000 0.0000 0.0000 0.0000 0.0000 0.0000 18.0902 0.0000 0.0000 -63.3156 36.1803 0.0000 0.0000 -27.1353 0.0000 0.0000 0.0000 0.0000 0.0000 13.5676 0.0000 0.0000 4.5225 0.0000 0.0000 0.0000 0.0000 0.0000 0.0000 0.0000 0.0000 0.0000 0.0000 0.0000 0.0000 0.0000 0.0000 0.0000 0.0000 0.0000 0.0000 0.0000 0.0000 0.0000 0.0000
0.0000 0.0000 0.0000 0.0000 0.0000 0.0000 0.0000 9.4550 0.0000 0.0000 0.0000 0.0000 0.0000 0.0000 0.0000 18.9101 0.0000 0.0000 -66.1852 37.8201 0.0000 0.0000 -28.3651 0.0000 0.0000 0.0000 0.0000 0.0000 14.1825 0.0000 0.0000 4.7275 0.0000 0.0000 0.0000 0.0000 0.0000 0.0000 0.0000 0.0000 0.0000 0.0000 0.0000 0.0000 0.0000 0.0000 0.0000 0.0000 0.0000 0.0000 0.0000 0.0000 0.0000 0.0000
0.0000 0.0000 0.0000 0.0000 0.0000 0.0000 0.0000 9.7553 0.0000 0.0000 0.0000 0.0000 0.0000 0.0000 0.0000 19.5106 0.0000 0.0000 -68.2870 39.0211 0.0000 0.0000 -29.2658 0.0000 0.0000 0.0000 0.0000 0.0000 14.6329 0.0000 0.0000 4.8776 0.0000 0.0000 0.0000 0.0000 0.0000 0.0000 0.0000 0.0000 0.0000 0.0000 0.0000 0.0000 0.0000 0.0000 0.0000 0.0000 0.0000 0.0000 0.0000 0.0000 0.0000 0.0000
0.0000 0.0000 0.0000 0.0000 0.0000 0.0000 0.0000 9.9384 0.0000 0.0000 0.0000 0.0000 0.0000 0.0000 0.0000 19.8769 0.0000 0.0000 -69.5691 39.7538 0.0000 0.0000 -29.8153 0.0000 0.0000 0.0000 0.0000 0.0000 14.9077 0.0000 0.0000 4.9692 0.0000 0.0000 0.0000 0.0000 0.0000 0.0000 0.0000 0.0000 0.0000 0.0000 0.0000 0.0000 0.0000 0.0000 0.0000 0.0000 0.0000 0.0000 0.0000 0.0000 0.0000 0.0000
0.0000 0.0000 0.0000 0.0000 0.0000 0.0000 0.0000 10.0000 0.0000 0.0000 0.0000 0.0000 0.0000 0.0000 0.0000 20.0000 0.0000 0.0000 -70.0000 40.0000 0.0000 0.0000 -30.0000 0.0000 0.0000 0.0000 0.0000 0.0000 15.0000 0.0000 0.0000 5.0000 0.0000 0.0000 0.0000 0.0000 0.0000 0.0000 0.0000 0.0000 0.0000 0.0000 0.0000 0.0000 0.0000 0.0000 0.0000 0.0000 0.0000 0.0000 0.0000 0.0000 0.0000 0.0000
0.0000 0.0000 0.0000 0.0000 0.0000 0.0000 0.0000 9.9384 0.0000 0.0000 0.0000 0.0000 0.0000 0.0000 0.0000 19.8769 0.0000 0.0000 -69.5691 39.7538 0.0000 0.0000 -29.8153 0.0000 0.0000 0.0000 0.0000 0.0000 14.9077 0.0000 0.0000 4.9692 0.0000 0.0000 0.0000 0.0000 0.0000 0.0000 0.0000 0.0000 0.0000 0.0000 0.0000 0.0000 0.0000 0.0000 0.0000 0.0000 0.0000 0.0000 0.0000 0.0000 0.0000 0.0000
0.0000 0.0000 0.0000 0.0000 0.0000 0.0000 0.0000 9.7553 0.0000 0.0000 0.0000 0.0000 0.0000 0.0000 0.0000 19.5106 0.0000 0.0000 -68.2870 39.0211 0.0000 0.0000 -29.2658 0.0000 0.0000 0.0000 0.0000 0.0000 14.6329 0.0000 0.0000 4.8776 0.0000 0.0000 0.0000 0.0000 0.0000 0.0000 0.0000 0.0000 0.0000 0.0000 0.0000 0.0000 0.0000 0.0000 0.0000 0.0000 0.0000 0.0000 0.0000 0.0000 0.0000 0.0000
0.0000 0.0000 0.0000 0.0000 0.0000 0.0000 0.0000 9.4550 0.0000 0.0000 0.0000 0.0000 0.0000 0.0000 0.0000 18.9101 0.0000 0.0000 -66.1852 37.8201 0.0000 0.0000 -28.3651 0.0000 0.0000 0.0000 0.0000 0.0000 14.1825 0.0000 0.0000 4.7275 0.0000 0.0000 0.0000 0.0000 0.0000 0.0000 0.0000 0.0000 0.0000 0.0000 0.0000 0.0000 0.0000 0.0000 0.0000 0.0000 0.0000 0.0000 0.0000 0.0000 0.0000 0.0000
0.0000 0.0000 0.0000 0.0000 0.0000 0.0000 0.0000 9.0451 0.0000 0.0000 0.0000 0.0000 0.0000 0.0000 0.0000 18.0902 0.0000 0.0000 -63.3156 36.1803 0.0000 0.0000 -27.1353 0.0000 0.0000 0.0000 0.0000 0.0000 13.5676 0.0000 0.0000 4.5225 0.0000 0.0000 0.0000 0.0000 0.0000 0.0000 0.0000 0.0000 0.0000 0.0000 0.0000 0.0000 0.0000 0.0000 0.0000 0.0000 0.0000 0.0000 0.0000 0.0000 0.0000 0.0000
0.0000 0.0000 0.0000 0.0000 0.0000 0.0000 0.0000 8.5355 0.0000 0.0000 0.0000 0.0000 0.0000 0.0000 0.0000 17.0711 0.0000 0.0000 -59.7487 34.1421 0.0000 0.0000 -25.6066 0.0000 0.0000 0.0000 0.0000 0.0000 12.8033 0.0000 0.0000 4.2678 0.0000 0.0000 0.0000 0.0000 0.0000 0.0000 0.0000 0.0000 0.0000 0.0000 0.0000 0.0000 0.0000 0.0000 0.0000 0.0000 0.0000 0.0000 0.0000 0.0000 0.0000 0.0000
0.0000 0.0000 0.0000 0.0000 0.0000 0.0000 0.0000 7.9389 0.0000 0.0000 0.0000 0.0000 0.0000 0.0000 0.0000 15.8779 0.0000 0.0000 -55.5725 31.7557 0.0000 0.0000 -23.8168 0.0000 0.0000 0.0000 0.0000 0.0000 11.9084 0.0000 0.0000 3.9695 0.0000 0.0000 0.0000 0.0000 0.0000 0.0000 0.0000 0.0000 0.0000 0.0000 0.0000 0.0000 0.0000 0.0000 0.0000 0.0000 0.0000 0.0000 0.0000 0.0000 0.0000 0.0000
0.0000 0.0000 0.0000 0.0000 0.0000 0.0000 0.0000 7.2700 0.0000 0.0000 0.0000 0.0000 0.0000 0.0000 0.0000 14.5399 0.0000 0.0000 -50.8897 29.0798 0.0000 0.0000 -21.8099 0.0000 0.0000 0.0000 0.0000 0.0000 10.9049 0.0000 0.0000 3.6350 0.0000 0.0000 0.0000 0.0000 0.0000 0.0000 0.0000 0.0000 0.0000 0.0000 0.0000 0.0000 0.0000 0.0000 0.0000 0.0000 0.0000 0.0000 0.0000 0.0000 0.0000 0.0000
0.0000 0.0000 0.0000 0.0000 0.0000 0.0000 0.0000 6.5451 0.0000 0.0000 0.0000 0.0000 0.0000 0.0000 0.0000 13.0902 0.0000 0.0000 -45.8156 26.1803 0.0000 0.0000 -19.6353 0.0000 0.0000 0.0000 0.0000 0.0000 9.8176 0.0000 0.0000 3.2725 0.0000 0.0000 0.0000 0.0000 0.0000 0.0000 0.0000 0.0000 0.0000 0.0000 0.0000 0.0000 0.0000 0.0000 0.0000 0.0000 0.0000 0.0000 0.0000 0.0000 0.0000 0.0000
0.0000 0.0000 0.0000 0.0000 0.0000 0.0000 0.0000 5.7822 0.0000 0.0000 0.0000 0.0000 0.0000 0.0000 0.0000 11.5643 0.0000 0.0000 -40.4752 23.1287 0.0000 0.0000 -17.3465 0.0000 0.0000 0.0000 0.0000 0.0000 8.6733 0.0000 0.0000 2.8911 0.0000 0.0000 0.0000 0.0000 0.0000 0.0000 0.0000 0.0000 0.0000 0.0000 0.0000 0.0000 0.0000 0.0000 0.0000 0.0000 0.0000 0.0000 0.0000 0.0000 0.0000 0.0000
0.0000 0.0000 0.0000 0.0000 0.0000 0.0000 0.0000 5.0000 0.0000 0.0000 0.0000 0.0000 0.0000 0.0000 0.0000 10.0000 0.0000 0.0000 -35.0000 20.0000 0.0000 0.0000 -15.0000 0.0000 0.0000 0.0000 0.0000 0.0000 7.5000 0.0000 0.0000 2.5000 0.0000 0.0000 0.0000 0.0000 0.0000 0.0000 0.0000 0.0000 0.0000 0.0000 0.0000 0.0000 0.0000 0.0000 0.0000 0.0000 0.0000 0.0000 0.0000 0.0000 0.0000 0.0000
0.0000 0.0000 0.0000 0.0000 0.0000 0.0000 0.0000 4.2178 0.0000 0.0000 0.0000 0.0000 0.0000 0.0000 0.0000 8.4357 0.0000 0.0000 -29.5248 16.8713 0.0000 0.0000 -12.6535 0.0000 0.0000 0.0000 0.0000 0.0000 6.3267 0.0000 0.0000 2.1089 0.0000 0.0000 0.0000 0.0000 0.0000 0.0000 0.0000 0.0000 0.0000 0.0000 0.0000 0.0000 0.0000 0.0000 0.0000 0.0000 0.0000 0.0000 0.0000 0.0000 0.0000 0.0000
0.0000 0.0000 0.0000 0.0000 0.0000 0.0000 0.0000 3.4549 0.0000 0.0000 0.0000 0.0000 0.0000 0.0000 0.0000 6.9098 0.0000 0.0000 -24.1844 13.8197 0.0000 0.0000 -10.3647 0.0000 0.0000 0.0000 0.0000 0.0000 5.1824 0.0000 0.0000 1.7275 0.0000 0.0000 0.0000 0.0000 0.0000 0.0000 0.0000 0.0000 0.0000 0.0000 0.0000 0.0000 0.0000 0.0000 0.0000 0.0000 0.0000 0.0000 0.0000 0.0000 0.0000 0.0000
0.0000 0.0000 0.0000 0.0000 0.0000 0.0000 0.0000 2.7300 0.0000 0.0000 0.0000 0.0000 0.0000 0.0000 0.0000 5.4601 0.0000 0.0000 -19.1103 10.9202 0.0000 0.0000 -8.1901 0.0000 0.0000 0.0000 0.0000 0.0000 4.0951 0.0000 0.0000 1.3650 0.0000 0.0000 0.0000 0.0000 0.0000 0.0000 0.0000 0.0000 0.0000 0.0000 0.0000 0.0000 0.0000 0.0000 0.0000 0.0000 0.0000 0.0000 0.0000 0.0000 0.0000 0.0000
0.0000 0.0000 0.0000 0.0000 0.0000 0.0000 0.0000 2.0611 0.0000 0.0000 0.0000 0.0000 0.0000 0.0000 0.0000 4.1221 0.0000 0.0000 -14.4275 8.2443 0.0000 0.0000 -6.1832 0.0000 0.0000 0.0000 0.0000 0.0000 3.0916 0.0000 0.0000 1.0305 0.0000 0.0000 0.0000 0.0000 0.0000 0.0000 0.0000 0.0000 0.0000 0.0000 0.0000 0.0000 0.0000 0.0000 0.0000 0.0000 0.0000 0.0000 0.0000 0.0000 0.0000 0.0000
0.0000 0.0000 0.0000 0.0000 0.0000 0.0000 0.0000 1.4645 0.0000 0.0000 0.0000 0.0000 0.0000 0.0000 0.0000 2.9289 0.0000 0.0000 -10.2513 5.8579 0.0000 0.0000 -4.3934 0.0000 0.0000 0.0000 0.0000 0.0000 2.1967 0.0000 0.0000 0.7322 0.0000 0.0000 0.0000 0.0000 0.0000 0.0000 0.0000 0.0000 0.0000 0.0000 0.0000 0.0000 0.0000 0.0000 0.0000 0.0000 0.0000 0.0000 0.0000 0.0000 0.0000 0.0000
0.0000 0.0000 0.0000 0.0000 0.0000 0.0000 0.0000 0.9549 0.0000 0.0000 0.0000 0.0000 0.0000 0.0000 0.0000 1.9098 0.0000 0.0000 -6.6844 3.8197 0.0000 0.0000 -2.8647 0.0000 0.0000 0.0000 0.0000 0.0000 1.4324 0.0000 0.0000 0.4775 0.0000 0.0000 0.0000 0.0000 0.0000 0.0000 0.0000 0.0000 0.0000 0.0000 0.0000 0.0000 0.0000 0.0000 0.0000 0.0000 0.0000 0.0000 0.0000 0.0000 0.0000 0.0000
0.0000 0.0000 0.0000 0.0000 0.0000 0.0000 0.0000 0.5450 0.0000 0.0000 0.0000 0.0000 0.0000 0.0000 0.0000 1.0899 0.0000 0.0000 -3.8148 2.1799 0.0000 0.0000 -1.6349 0.0000 0.0000 0.0000 0.0000 0.0000 0.8175 0.0000 0.0000 0.2725 0.0000 0.0000 0.0000 0.0000 0.0000 0.0000 0.0000 0.0000 0.0000 0.0000 0.0000 0.0000 0.0000 0.0000 0.0000 0.0000 0.0000 0.0000 0.0000 0.0000 0.0000 0.0000
0.0000 0.0000 0.0000 0.0000 0.0000 0.0000 0.0000 0.2447 0.0000 0.0000 0.0000 0.0000 0.0000 0.0000 0.0000 0.4894 0.0000 0.0000 -1.7130 0.9789 0.0000 0.0000 -0.7342 0.0000 0.0000 0.0000 0.0000 0.0000 0.3671 0.0000 0.0000 0.1224 0.0000 0.0000 0.0000 0.0000 0.0000 0.0000 0.0000 0.0000 0.0000 0.0000 0.0000 0.0000 0.0000 0.0000 0.0000 0.0000 0.0000 0.0000 0.0000 0.0000 0.0000 0.0000
0.0000 0.0000 0.0000 0.0000 0.0000 0.0000 0.0000 0.0616 0.0000 0.0000 0.0000 0.0000 0.0000 0.0000 0.0000 0.1231 0.0000 0.0000 -0.4309 0.2462 0.0000 0.0000 -0.1847 0.0000 0.0000 0.0000 0.0000 0.0000 0.0923 0.0000 0.0000 0.0308 0.0000 0.0000 0.0000 0.0000 0.0000 0.0000 0.0000 0.0000 0.0000 0.0000 0.0000 0.0000 0.0000 0.0000 0.0000 0.0000 0.0000 0.0000 0.0000 0.0000 0.0000 0.0000
0.0000 0.0000 0.0000 0.0000 0.0000 0.0000 0.0000 0.0000 0.0000 0.0000 0.0000 0.0000 0.0000 0.0000 0.0000 0.0000 0.0000 0.0000 -0.0000 0.0000 0.0000 0.0000 -0.0000 0.0000 0.0000 0.0000 0.0000 0.0000 0.0000 0.0000 0.0000 0.0000 0.0000 0.0000 0.0000 0.0000 0.0000 0.0000 0.0000 0.0000 0.0000 0.0000 0.0000 0.0000 0.0000 0.0000 0.0000 0.0000 0.0000 0.0000 0.0000 0.0000 0.0000 0.0000
